<svg xmlns="http://www.w3.org/2000/svg" viewBox="0 0 128 128" fill="none">
  <g stroke="#D2C7A3" stroke-width="2.25" stroke-linecap="round" stroke-linejoin="round">
    <path d="M64 30.5 56 19.5 49.5 18.5 53.5 27 64 35" />
    <path d="M64 30.5 72 19.5 78.5 18.5 74.5 27 64 35" />
    <path d="M53.5 27C45 34 40.5 49.5 40.5 67.5c0 19 5.5 37.5 12 48 4.5-11.5 7-27.5 6.5-44.5-.5-18-2.5-34-5.5-44Z" />
    <path d="M74.5 27c8.5 7 13 22.5 13 40.5 0 19-5.5 37.5-12 48-4.5-11.5-7-27.5-6.5-44.5.5-18 2.5-34 5.5-44Z" />
    <path d="m53.5 34 21 62" />
    <path d="m74.5 34-21 62" />
  </g>
</svg>
